<svg width="300" height="385" viewBox="0 0 300 385" fill="none" xmlns="http://www.w3.org/2000/svg">
<path d="M33.8215 1.04373C27.6028 -0.844364 20.9343 -0.160963 15.2632 3.01387C9.59323 6.18462 5.38517 11.5869 3.58457 17.962C1.78396 24.3371 2.54403 31.1426 5.7174 36.8111C8.88961 42.4837 14.2152 46.5547 20.5028 48.1989C20.5028 48.1989 20.5028 48.1989 20.5028 48.1989C33.3421 51.5601 46.1814 54.9213 59.0207 58.2824C123.866 75.2582 188.712 92.2339 253.557 109.21L245.723 75.2722C169.785 145.766 93.8472 216.26 17.9094 286.753L-4.76837e-05 302.213L22.7395 310.281C87.8435 330.763 152.947 351.246 218.051 371.728C230.712 375.711 243.372 379.694 256.032 383.677C258.313 384.394 260.807 384.168 262.957 383.073C265.109 381.977 266.74 380.103 267.501 377.838C268.262 375.572 268.093 373.093 267.039 370.921C265.985 368.75 264.133 367.064 261.882 366.259C261.882 366.259 261.882 366.259 261.882 366.259C249.385 361.792 236.887 357.325 224.39 352.858C160.121 329.887 95.853 306.917 31.5848 283.946L36.4149 307.473C115.007 239.951 193.599 172.43 272.192 104.908L299.017 80.1542L264.357 70.9706C200.213 51.514 136.068 32.0574 71.9231 12.6008C59.2226 8.74847 46.522 4.8961 33.8215 1.04373Z" fill="white"/>
</svg>
